# xmcd CD database file
#
# Track frame offsets:
#	150
#	13677
#	16470
#	20590
#	33862
#	49817
#	53417
#	60280
#	68510
#	73682
#	75912
#	79432
#	91187
#	97467
#	102322
#	124025
#	129655
#	144092
#	190642
#	224242
#	233395
#	239500
#	253372
#	261377
#	268695
#	277647
#	291420
#	297832
#	305730
#
# Disc length: 4285 seconds
#
# Revision: 0
# Processed by: cddbd v1.5.2PL0 Copyright (c) Steve Scherf et al.
# Submitted via: CDex 1.70beta2
#
DISCID=a410bb1d
DTITLE=世界宗教音楽ライブラリー - 日本の「典礼聖歌」
DYEAR=2001
DGENRE=World
TTITLE0=鐘～入祭の歌
TTITLE1=入祭の挨拶
TTITLE2=あわれみの賛歌
TTITLE3=栄光の賛歌
TTITLE4=答唱詩篇
TTITLE5=アレルヤ唱
TTITLE6=信仰宣言
TTITLE7=叙唱
TTITLE8=感謝の賛歌
TTITLE9=奉献文の記念唱
TTITLE10=奉献文の栄唱
TTITLE11=主の祈り
TTITLE12=平和の賛歌
TTITLE13=派遣の祝福～閉祭の挨拶
TTITLE14=ダビドの子～聖なる町に
TTITLE15=キリストは人間の姿で現れ
TTITLE16=いつくしみと愛
TTITLE17=十字架の賛美
TTITLE18=復活賛歌
TTITLE19=神よあなたはわたしの力〈ミサ賛歌「やまとのささげうた」〉
TTITLE20=あわれみの賛歌
TTITLE21=栄光の賛歌
TTITLE22=感謝の賛歌
TTITLE23=平和の賛歌〈詩篇のうた〉
TTITLE24=主はわれらの牧者
TTITLE25=谷川の水を求めて〈聖母賛歌〉
TTITLE26=しあわせなかたマリア 
TTITLE27=天の元后〈一般賛歌〉
TTITLE28=父はいる
EXTD=YEAR: 2001
EXTT0=
EXTT1=
EXTT2=
EXTT3=
EXTT4=
EXTT5=
EXTT6=
EXTT7=
EXTT8=
EXTT9=
EXTT10=
EXTT11=
EXTT12=
EXTT13=
EXTT14=
EXTT15=
EXTT16=
EXTT17=
EXTT18=
EXTT19=
EXTT20=
EXTT21=
EXTT22=
EXTT23=
EXTT24=
EXTT25=
EXTT26=
EXTT27=
EXTT28=
PLAYORDER=
